<svg xmlns="http://www.w3.org/2000/svg" version="1.1" xmlns:xlink="http://www.w3.org/1999/xlink" xmlns:svgjs="http://svgjs.dev/svgjs" width="1500" height="1500" viewBox="0 0 1500 1500"><rect width="1500" height="1500" fill="#ffffff"></rect><g transform="matrix(0.6666666666666666,0,0,0.6666666666666666,249.39393939393938,452.1359099500856)"><svg viewBox="0 0 396 235" data-background-color="#ffffff" preserveAspectRatio="xMidYMid meet" height="890" width="1500" xmlns="http://www.w3.org/2000/svg" xmlns:xlink="http://www.w3.org/1999/xlink"><g id="tight-bounds" transform="matrix(1,0,0,1,0.2400000000000091,0.47426038493802025)"><svg viewBox="0 0 395.52 234.05147923012396" height="234.05147923012396" width="395.52"><g><svg viewBox="0 0 395.52 234.05147923012396" height="234.05147923012396" width="395.52"><g transform="matrix(1,0,0,1,0,141.61686111171633)"><svg viewBox="0 0 395.52 92.43461811840763" height="92.43461811840763" width="395.52"><g id="textblocktransform"><svg viewBox="0 0 395.52 92.43461811840763" height="92.43461811840763" width="395.52" id="textblock"><g><svg viewBox="0 0 395.52 58.7616651928912" height="58.7616651928912" width="395.52"><g transform="matrix(1,0,0,1,0,0)"><svg width="395.52" viewBox="3.3 -38.38 337.90999999999997 50.208688272838" height="58.7616651928912" data-palette-color="#0a3b3d"><path d="M25.66-22.44L25.66-22.44Q26.56-23.54 28.45-24.57 30.35-25.61 33.79-25.61L33.79-25.61Q38.67-25.61 40.84-23.1 43.02-20.58 43.02-15.55L43.02-15.55 43.02-1.29Q43.02-0.56 42.71-0.28 42.41 0 41.67 0L41.67 0 36.65 0Q35.91 0 35.61-0.28 35.3-0.56 35.3-1.29L35.3-1.29 35.3-14.28Q35.3-17.02 34.3-18.2 33.3-19.38 31.3-19.38L31.3-19.38Q29.52-19.38 28.48-18.59 27.44-17.8 27-16.46L27-16.46 27-1.29Q27-0.56 26.7-0.28 26.39 0 25.66 0L25.66 0 20.63 0Q19.9 0 19.59-0.28 19.29-0.56 19.29-1.29L19.29-1.29 19.29-14.28Q19.29-16.94 18.19-18.16 17.09-19.38 15.31-19.38L15.31-19.38Q13.62-19.38 12.6-18.55 11.57-17.72 11.01-16.46L11.01-16.46 11.01-1.29Q11.01-0.56 10.71-0.28 10.4 0 9.67 0L9.67 0 4.64 0Q3.91 0 3.6-0.28 3.3-0.56 3.3-1.29L3.3-1.29 3.3-21.75Q3.3-22.34 3.54-22.66L3.54-22.66Q4.05-23.34 4.77-24.05 5.49-24.76 6.54-25.56L6.54-25.56Q6.86-25.81 7.15-25.81L7.15-25.81Q7.42-25.81 7.76-25.56L7.76-25.56Q8.79-24.76 9.52-24.02 10.25-23.29 10.82-22.51L10.82-22.51 10.94-22.51Q11.77-23.56 13.53-24.58 15.28-25.61 18.55-25.61L18.55-25.61Q21.68-25.61 23.19-24.67 24.71-23.73 25.66-22.44ZM56.08 0.61L56.08 0.61Q52.49 0.61 50.38-1.4 48.26-3.42 48.26-6.96L48.26-6.96Q48.26-8.79 48.94-10.36 49.61-11.94 51.28-13.15 52.95-14.36 55.97-15.09 58.98-15.82 63.67-15.94L63.67-15.94Q63.67-18.16 62.56-19.14 61.45-20.12 59.23-20.12L59.23-20.12Q57.22-20.12 55.95-19.43 54.69-18.75 54.37-18.51L54.37-18.51Q54.03-18.21 53.54-18.29L53.54-18.29Q52.88-18.38 52.13-18.63 51.39-18.87 50.53-19.19L50.53-19.19Q50.41-19.24 50.27-19.35 50.12-19.46 50.1-19.68L50.1-19.68Q50.1-19.8 50.12-19.98 50.14-20.17 50.24-20.65L50.24-20.65Q50.34-21.14 50.53-21.86 50.73-22.58 50.9-22.97L50.9-22.97Q51.12-23.39 51.63-23.75L51.63-23.75Q52.05-24.1 54.15-24.85 56.25-25.61 60.23-25.61L60.23-25.61Q71.19-25.61 71.19-14.94L71.19-14.94 71.19-1.12Q71.19-0.66 70.93-0.33 70.68 0 70.07 0L70.07 0 66.4 0Q66.01 0 65.71-0.11 65.4-0.22 65.13-0.54L65.13-0.54 63.62-2.49 63.45-2.49Q62.33-0.85 60.43-0.12 58.54 0.61 56.08 0.61ZM58.76-5.05L58.76-5.05Q61.01-5.05 62.16-6.2 63.3-7.35 63.62-8.57L63.62-8.57 63.62-11.28Q60.23-11.28 58.53-10.75 56.83-10.23 56.27-9.39 55.71-8.54 55.71-7.57L55.71-7.57Q55.71-6.15 56.59-5.6 57.47-5.05 58.76-5.05ZM77.09-33.11L77.09-33.11Q77.09-33.42 77.28-33.65 77.46-33.89 77.78-34.28L77.78-34.28Q78.46-35.06 79.35-35.9 80.24-36.74 81.15-37.52L81.15-37.52Q81.71-37.99 82-37.99L82-37.99Q82.29-37.99 82.88-37.52L82.88-37.52Q84.79-35.89 86.2-34.28L86.2-34.28Q86.49-33.91 86.7-33.67 86.91-33.42 86.91-33.11L86.91-33.11Q86.91-32.79 86.7-32.56 86.49-32.32 86.18-31.91L86.18-31.91Q85.52-31.15 84.65-30.32 83.78-29.49 82.88-28.71L82.88-28.71Q82.56-28.42 82.37-28.33 82.17-28.25 82-28.25L82-28.25Q81.83-28.25 81.65-28.33 81.46-28.42 81.1-28.71L81.1-28.71Q80.12-29.49 79.29-30.33 78.46-31.18 77.78-31.96L77.78-31.96Q77.46-32.35 77.28-32.57 77.09-32.79 77.09-33.11ZM78.12-1.93L78.12-1.93 78.12-23.71Q78.12-24.44 78.43-24.72 78.73-25 79.46-25L79.46-25 84.49-25Q85.22-25 85.53-24.72 85.83-24.44 85.83-23.71L85.83-23.71 85.83-0.44Q85.83 3.34 84.81 5.73 83.78 8.11 82.22 9.48 80.66 10.86 79.05 11.67L79.05 11.67Q78.17 12.11 77.51 11.33L77.51 11.33 74.53 7.69Q74.14 7.23 74.14 6.9 74.14 6.57 74.65 6.23L74.65 6.23Q75.19 5.86 76.01 5.1 76.83 4.35 77.47 2.7 78.12 1.05 78.12-1.93ZM101.19 0.61L101.19 0.61Q92.5 0.61 92.5-9.91L92.5-9.91 92.47-22.31Q92.47-22.9 92.72-23.22L92.72-23.22Q93.74-24.56 95.72-26.12L95.72-26.12Q96.06-26.37 96.33-26.37L96.33-26.37Q96.65-26.37 96.94-26.12L96.94-26.12Q97.99-25.32 98.71-24.61 99.43-23.9 99.94-23.22L99.94-23.22Q100.19-22.9 100.19-22.31L100.19-22.31 100.19-10.6Q100.19-5.3 104.39-5.3L104.39-5.3Q106.46-5.3 107.71-6.75 108.95-8.2 108.95-10.69L108.95-10.69 108.95-22.31Q108.95-22.9 109.2-23.22L109.2-23.22Q110.22-24.56 112.2-26.12L112.2-26.12Q112.54-26.37 112.81-26.37L112.81-26.37Q113.13-26.37 113.42-26.12L113.42-26.12Q114.47-25.32 115.19-24.61 115.91-23.9 116.42-23.22L116.42-23.22Q116.67-22.9 116.67-22.31L116.67-22.31 116.67-1.12Q116.67-0.66 116.35-0.33 116.03 0 115.54 0L115.54 0 111.88 0Q111.49 0 111.19-0.11 110.88-0.22 110.61-0.54L110.61-0.54 109.1-2.49 108.93-2.49Q108.54-1.93 107.72-1.2 106.9-0.46 105.35 0.07 103.8 0.61 101.19 0.61ZM131.56-1.83L126.45 0.51Q125.94 0.73 125.72 0.73L125.72 0.73Q125.5 0.73 125.26 0.56L125.26 0.56Q124.7 0.17 123.98-1.35 123.26-2.88 123.26-6.05L123.26-6.05 123.26-34.33Q123.26-34.91 123.5-35.23L123.5-35.23Q124.53-36.57 126.5-38.13L126.5-38.13Q126.85-38.38 127.11-38.38L127.11-38.38Q127.43-38.38 127.72-38.13L127.72-38.13Q128.77-37.33 129.49-36.62 130.21-35.91 130.73-35.23L130.73-35.23Q130.97-34.91 130.97-34.33L130.97-34.33 130.97-7.54Q130.97-5.93 131.24-4.8 131.51-3.66 131.87-2.98L131.87-2.98Q132.29-2.17 131.56-1.83L131.56-1.83ZM144.13 0.61L144.13 0.61Q140.54 0.61 138.43-1.4 136.32-3.42 136.32-6.96L136.32-6.96Q136.32-8.79 136.99-10.36 137.66-11.94 139.33-13.15 141-14.36 144.02-15.09 147.03-15.82 151.72-15.94L151.72-15.94Q151.72-18.16 150.61-19.14 149.5-20.12 147.28-20.12L147.28-20.12Q145.28-20.12 144.01-19.43 142.74-18.75 142.42-18.51L142.42-18.51Q142.08-18.21 141.59-18.29L141.59-18.29Q140.93-18.38 140.19-18.63 139.44-18.87 138.59-19.19L138.59-19.19Q138.46-19.24 138.32-19.35 138.17-19.46 138.15-19.68L138.15-19.68Q138.15-19.8 138.17-19.98 138.2-20.17 138.29-20.65L138.29-20.65Q138.39-21.14 138.59-21.86 138.78-22.58 138.95-22.97L138.95-22.97Q139.17-23.39 139.68-23.75L139.68-23.75Q140.1-24.1 142.2-24.85 144.3-25.61 148.28-25.61L148.28-25.61Q159.24-25.61 159.24-14.94L159.24-14.94 159.24-1.12Q159.24-0.66 158.98-0.33 158.73 0 158.12 0L158.12 0 154.46 0Q154.06 0 153.76-0.11 153.45-0.22 153.19-0.54L153.19-0.54 151.67-2.49 151.5-2.49Q150.38-0.85 148.49-0.12 146.59 0.61 144.13 0.61ZM146.81-5.05L146.81-5.05Q149.06-5.05 150.21-6.2 151.35-7.35 151.67-8.57L151.67-8.57 151.67-11.28Q148.28-11.28 146.58-10.75 144.88-10.23 144.32-9.39 143.76-8.54 143.76-7.57L143.76-7.57Q143.76-6.15 144.64-5.6 145.52-5.05 146.81-5.05ZM173.54-16.46L173.54-1.29Q173.54-0.56 173.24-0.28 172.93 0 172.2 0L172.2 0 167.17 0Q166.44 0 166.13-0.28 165.83-0.56 165.83-1.29L165.83-1.29 165.83-34.33Q165.83-34.91 166.07-35.23L166.07-35.23Q167.1-36.57 169.08-38.13L169.08-38.13Q169.42-38.38 169.69-38.38L169.69-38.38Q170-38.38 170.3-38.13L170.3-38.13Q171.35-37.33 172.07-36.62 172.79-35.91 173.3-35.23L173.3-35.23Q173.54-34.91 173.54-34.33L173.54-34.33 173.54-22.49 173.64-22.49Q174.18-23.19 175.03-23.91 175.89-24.63 177.32-25.12 178.74-25.61 180.97-25.61L180.97-25.61Q183.21-25.61 185.29-24.68 187.36-23.75 188.68-21.56 190-19.36 190-15.55L190-15.55 190-1.29Q190-0.56 189.69-0.28 189.39 0 188.66 0L188.66 0 183.63 0Q182.9 0 182.59-0.28 182.28-0.56 182.28-1.29L182.28-1.29 182.28-14.21Q182.28-16.92 181.16-18.15 180.04-19.38 178.11-19.38L178.11-19.38Q176.21-19.38 175.16-18.55 174.11-17.72 173.54-16.46L173.54-16.46ZM234.55-22.66L234.55-22.66 234.55-2.86Q234.55 4.27 230.49 8.01 226.42 11.74 219.34 11.74L219.34 11.74Q216.41 11.74 214.7 11.32 212.99 10.89 212.11 10.5L212.11 10.5Q211.55 10.23 211.38 9.94L211.38 9.94Q211.14 9.55 210.83 8.79 210.53 8.03 210.26 7.13L210.26 7.13Q210.19 6.79 210.23 6.62L210.23 6.62Q210.33 6.37 210.6 6.1L210.6 6.1Q211.04 5.66 211.86 5.08 212.68 4.49 213.11 4.32L213.11 4.32Q213.58 4.15 213.97 4.37L213.97 4.37Q214.6 4.71 215.79 5.14 216.97 5.57 219.12 5.57L219.12 5.57Q222.54 5.57 224.69 3.81 226.84 2.05 226.84-1.61L226.84-1.61 226.84-2.49 226.74-2.49Q226.2-1.81 225.35-1.1 224.49-0.39 223.14 0.1 221.78 0.59 219.66 0.59L219.66 0.59Q215.97 0.59 213.62-1.01 211.26-2.61 210.15-5.42 209.04-8.23 209.04-11.82L209.04-11.82Q209.04-15.75 210.33-18.87 211.63-22 214.68-23.82 217.73-25.63 223.03-25.63L223.03-25.63Q226.2-25.63 228.36-25.17 230.52-24.71 231.99-24.02 233.45-23.34 234.55-22.66ZM222.76-19.73L222.76-19.73Q219.93-19.73 218.44-17.82 216.95-15.92 216.95-11.91L216.95-11.91Q216.95-5.64 222.12-5.64L222.12-5.64Q224.15-5.64 225.22-6.47 226.3-7.3 226.84-8.57L226.84-8.57 226.84-18.65Q226.3-19.04 225.32-19.38 224.35-19.73 222.76-19.73ZM248.85-22.17L248.85-20.36 248.95-20.36Q250.78-25.44 255.54-25.44L255.54-25.44Q256.15-25.44 256.54-25.38 256.94-25.32 257.08-25.27L257.08-25.27Q257.45-25.15 257.45-24.71L257.45-24.71 257.45-18.82Q257.45-18.07 256.57-18.41L256.57-18.41Q256.28-18.53 255.73-18.66 255.18-18.8 254.2-18.8L254.2-18.8Q251.69-18.8 250.27-16.96 248.85-15.11 248.85-11.94L248.85-11.94 248.85-1.29Q248.85-0.56 248.55-0.28 248.24 0 247.51 0L247.51 0 242.48 0Q241.75 0 241.44-0.28 241.14-0.56 241.14-1.29L241.14-1.29 241.14-21.75Q241.14-22.34 241.38-22.66L241.38-22.66Q241.9-23.34 242.62-24.05 243.34-24.76 244.39-25.56L244.39-25.56Q244.58-25.71 244.78-25.76 244.97-25.81 245.12-25.81L245.12-25.81Q245.46-25.81 245.8-25.56L245.8-25.56Q247.83-23.97 248.63-22.85L248.63-22.85Q248.85-22.56 248.85-22.17L248.85-22.17ZM273.34 0.61L273.34 0.61Q269.21 0.61 266.16-0.72 263.11-2.05 261.43-4.86 259.74-7.67 259.74-12.11L259.74-12.11Q259.74-18.77 263.16-22.19 266.58-25.61 272.24-25.61L272.24-25.61Q275.93-25.61 278.48-24.29 281.03-22.97 282.36-20.65 283.69-18.33 283.69-15.36L283.69-15.36Q283.69-12.45 282.2-11.3 280.71-10.16 277.86-10.16L277.86-10.16 267.38-10.16Q267.58-7.64 269.23-6.32 270.87-5 273.71-5L273.71-5Q275.95-5 277.31-5.68 278.66-6.35 279.2-6.74L279.2-6.74Q279.66-7.08 280.25-7.06L280.25-7.06Q280.71-7.06 281.58-6.87 282.45-6.69 283.3-6.2L283.3-6.2Q283.91-5.88 283.91-5.32L283.91-5.32Q283.91-5 283.79-4.42L283.79-4.42Q283.72-4.08 283.54-3.43 283.37-2.78 283.1-2.22L283.1-2.22Q282.96-1.95 282.64-1.71L282.64-1.71Q282.15-1.37 281.07-0.81 279.98-0.24 278.1 0.18 276.22 0.61 273.34 0.61ZM267.33-15.16L267.33-15.16 275.29-15.16Q276.54-15.16 276.54-16.31L276.54-16.31Q276.54-18.04 275.45-19.23 274.36-20.41 272.19-20.41L272.19-20.41Q269.82-20.41 268.71-18.9 267.6-17.38 267.33-15.16ZM301.32 0.61L301.32 0.61Q297.19 0.61 294.14-0.72 291.09-2.05 289.4-4.86 287.72-7.67 287.72-12.11L287.72-12.11Q287.72-18.77 291.13-22.19 294.55-25.61 300.22-25.61L300.22-25.61Q303.9-25.61 306.45-24.29 309.01-22.97 310.34-20.65 311.67-18.33 311.67-15.36L311.67-15.36Q311.67-12.45 310.18-11.3 308.69-10.16 305.83-10.16L305.83-10.16 295.36-10.16Q295.55-7.64 297.2-6.32 298.85-5 301.68-5L301.68-5Q303.93-5 305.28-5.68 306.64-6.35 307.17-6.74L307.17-6.74Q307.64-7.08 308.22-7.06L308.22-7.06Q308.69-7.06 309.56-6.87 310.42-6.69 311.28-6.2L311.28-6.2Q311.89-5.88 311.89-5.32L311.89-5.32Q311.89-5 311.76-4.42L311.76-4.42Q311.69-4.08 311.52-3.43 311.35-2.78 311.08-2.22L311.08-2.22Q310.93-1.95 310.62-1.71L310.62-1.71Q310.13-1.37 309.04-0.81 307.96-0.24 306.08 0.18 304.2 0.61 301.32 0.61ZM295.31-15.16L295.31-15.16 303.27-15.16Q304.51-15.16 304.51-16.31L304.51-16.31Q304.51-18.04 303.43-19.23 302.34-20.41 300.17-20.41L300.17-20.41Q297.8-20.41 296.69-18.9 295.58-17.38 295.31-15.16ZM341.21-15.55L341.21-15.55 341.21-1.29Q341.21-0.56 340.9-0.28 340.6 0 339.86 0L339.86 0 334.83 0Q334.1 0 333.8-0.28 333.49-0.56 333.49-1.29L333.49-1.29 333.49-14.28Q333.49-16.94 332.37-18.16 331.24-19.38 329.32-19.38L329.32-19.38Q327.39-19.38 326.35-18.55 325.31-17.72 324.75-16.46L324.75-16.46 324.75-1.29Q324.75-0.56 324.45-0.28 324.14 0 323.41 0L323.41 0 318.38 0Q317.65 0 317.34-0.28 317.04-0.56 317.04-1.29L317.04-1.29 317.04-21.75Q317.04-22.34 317.28-22.66L317.28-22.66Q317.79-23.34 318.51-24.05 319.23-24.76 320.28-25.56L320.28-25.56Q320.6-25.81 320.89-25.81L320.89-25.81Q321.16-25.81 321.5-25.56L321.5-25.56Q322.53-24.76 323.26-24.02 323.99-23.29 324.55-22.51L324.55-22.51 324.68-22.51Q325.09-23.05 325.92-23.77 326.75-24.49 328.25-25.05 329.76-25.61 332.1-25.61L332.1-25.61Q334.39-25.61 336.47-24.68 338.54-23.75 339.87-21.56 341.21-19.36 341.21-15.55Z" opacity="1" transform="matrix(1,0,0,1,0,0)" fill="#000000" class="wordmark-text-0" data-fill-palette-color="primary" id="text-0"></path></svg></g></svg></g><g transform="matrix(1,0,0,1,29.664000000000016,72.63388406496819)"><svg viewBox="0 0 336.19199999999995 19.80073405343945" height="19.80073405343945" width="336.19199999999995"><g transform="matrix(1,0,0,1,0,0)"><svg width="336.19199999999995" viewBox="0.45 -38.75 879.41 51.8" height="19.80073405343945" data-palette-color="#3e3e3e"><path d="M27-3.95Q27.6-3.85 28.4-2.85 29.2-1.85 29.2-1L29.2-1Q29.2-0.45 28.35-0.15L28.35-0.15Q28.05-0.05 27.38 0.23 26.7 0.5 26.15 0.6 25.6 0.7 24.9 0.7L24.9 0.7Q23.85 0.7 23.3 0.45L23.3 0.45Q21.9-0.15 19.65-2.35 17.4-4.55 15.3-7.38 13.2-10.2 12.2-12.65L12.2-12.65 11.9-12.65Q10.5-12.65 9.85-12.7L9.85-12.7Q8.35-7.15 7.35-3L7.35-3Q6.95-1.25 6.13-0.3 5.3 0.65 3.45 0.65L3.45 0.65Q1.9 0.65 1.18 0.13 0.45-0.4 0.45-1.65L0.45-1.65Q0.45-2.2 0.6-2.7L0.6-2.7 6.65-26.05Q4.05-25.3 2.7-24L2.7-24Q2.15-24.6 1.83-25.58 1.5-26.55 1.5-27.5L1.5-27.5Q1.5-28.2 1.93-28.63 2.35-29.05 3.1-29.4L3.1-29.4Q3.35-29.55 4.93-30.3 6.5-31.05 7.95-31.45L7.95-31.45Q8.4-32.45 9.33-33.1 10.25-33.75 11.7-33.75L11.7-33.75Q12.55-33.75 13.1-33.43 13.65-33.1 13.85-32.6L13.85-32.6Q15.7-33.2 18.3-33.2L18.3-33.2Q21.5-33.2 23.88-31.93 26.25-30.65 27.5-28.65 28.75-26.65 28.75-24.6L28.75-24.6Q28.75-20.05 25.83-17.32 22.9-14.6 18.3-13.45L18.3-13.45Q19.35-11.65 21.1-9.4 22.85-7.15 24.43-5.58 26-4 26.5-4L26.5-4 27-3.95ZM13.3-27.4Q11.85-21.6 10.9-17.35L10.9-17.35Q11.5-17.3 12.6-17.3L12.6-17.3Q15-17.3 17.4-18.03 19.8-18.75 21.43-20.2 23.05-21.65 23.05-23.8L23.05-23.8Q23.05-25.75 21.45-26.93 19.85-28.1 17.15-28.1L17.15-28.1Q15.65-28.1 13.3-27.4L13.3-27.4ZM40.95 1.05Q36.55 1.05 34.1-1.95 31.65-4.95 31.65-9.6L31.65-9.6Q31.65-13.5 33.52-16.95 35.4-20.4 38.65-22.5 41.9-24.6 45.8-24.6L45.8-24.6Q49.65-24.6 52.12-22.08 54.6-19.55 54.6-14.65L54.6-14.65Q54.6-11.2 52.7-7.5 50.8-3.8 47.62-1.38 44.45 1.05 40.95 1.05L40.95 1.05ZM41.7-2.95Q43.3-2.95 44.92-4.95 46.55-6.95 47.6-10 48.65-13.05 48.65-15.95L48.65-15.95Q48.65-20.4 44.95-20.4L44.95-20.4Q42.9-20.4 41.2-18.45 39.5-16.5 38.5-13.63 37.5-10.75 37.5-8.25L37.5-8.25Q37.5-6.8 38.15-5.58 38.8-4.35 39.77-3.65 40.75-2.95 41.7-2.95L41.7-2.95ZM66.34 1.05Q61.95 1.05 59.5-1.95 57.05-4.95 57.05-9.6L57.05-9.6Q57.05-13.5 58.92-16.95 60.8-20.4 64.05-22.5 67.3-24.6 71.2-24.6L71.2-24.6Q75.05-24.6 77.52-22.08 80-19.55 80-14.65L80-14.65Q80-11.2 78.09-7.5 76.2-3.8 73.02-1.38 69.84 1.05 66.34 1.05L66.34 1.05ZM67.09-2.95Q68.7-2.95 70.32-4.95 71.95-6.95 73-10 74.05-13.05 74.05-15.95L74.05-15.95Q74.05-20.4 70.34-20.4L70.34-20.4Q68.3-20.4 66.59-18.45 64.9-16.5 63.9-13.63 62.9-10.75 62.9-8.25L62.9-8.25Q62.9-6.8 63.55-5.58 64.2-4.35 65.17-3.65 66.15-2.95 67.09-2.95L67.09-2.95ZM92.64-18.1L89.49-5.5Q89.49-4.35 90.09-3.68 90.69-3 91.79-3L91.79-3Q93.29-3 94.27-3.88 95.24-4.75 96.34-6.35L96.34-6.35Q97.14-7.5 97.64-8 98.14-8.5 98.79-8.5L98.79-8.5Q100.09-8.5 100.64-8.18 101.19-7.85 101.19-6.85L101.19-6.85Q101.19-6.4 101.09-5.78 100.99-5.15 100.84-4.85L100.84-4.85Q99.64-2.3 96.92-0.45 94.19 1.4 90.74 1.4L90.74 1.4Q87.29 1.4 85.54-0.28 83.79-1.95 83.79-5.05L83.79-5.05Q83.79-5.5 84.24-7.4 84.69-9.3 85.39-11.95L85.39-11.95 86.79-17.65 83.74-17.4Q83.14-17.4 82.84-17.85 82.54-18.3 82.54-18.95L82.54-18.95Q82.54-20.2 83.44-21.45L83.44-21.45Q83.54-21.6 84.44-21.75 85.34-21.9 86.64-22.05L86.64-22.05 87.99-22.2 89.69-29.5Q90.19-30.8 91.22-31.53 92.24-32.25 93.14-32.25L93.14-32.25Q94.14-32.25 94.84-31.65 95.54-31.05 95.59-30.25L95.59-30.25 93.79-22.75Q95.74-23 97.42-23.18 99.09-23.35 100.04-23.35L100.04-23.35Q101.94-23.35 101.94-21.15L101.94-21.15Q101.94-20.3 101.22-19.63 100.49-18.95 99.64-18.8L99.64-18.8 92.64-18.1ZM113.09 1.05Q108.19 1.05 105.94-0.9 103.69-2.85 103.69-6.1L103.69-6.1Q103.69-10.85 106.07-14.9 108.44-18.95 112.42-21.33 116.39-23.7 120.99-23.7L120.99-23.7Q123.79-23.7 125.69-22.13 127.59-20.55 127.59-17.5L127.59-17.5Q127.59-15.75 126.47-14.63 125.34-13.5 123.24-12.63 121.14-11.75 116.44-10.15L116.44-10.15Q112.19-8.75 109.54-7.8L109.54-7.8Q109.34-7.05 109.34-6.25L109.34-6.25Q109.34-4.85 110.52-4.1 111.69-3.35 113.84-3.35L113.84-3.35Q115.19-3.35 116.94-3.9 118.69-4.45 119.14-5.3L119.14-5.3Q120.84-8.4 122.24-8.4L122.24-8.4Q124.29-8.4 125.02-7.63 125.74-6.85 125.79-5.9L125.79-5.9Q125.19-4.3 123.44-2.68 121.69-1.05 118.99 0 116.29 1.05 113.09 1.05L113.09 1.05ZM110.94-12.4Q115.89-14 119.09-15.38 122.29-16.75 122.29-18.1L122.29-18.1Q122.29-18.7 121.64-19.07 120.99-19.45 120.24-19.45L120.24-19.45Q118.74-19.45 116.82-18.3 114.89-17.15 113.24-15.5 111.59-13.85 110.94-12.4L110.94-12.4ZM151.79-37.05Q151.99-37.8 152.96-38.27 153.94-38.75 155.04-38.75L155.04-38.75Q155.94-38.75 156.99-38.35 158.04-37.95 158.04-37.2L158.04-37.2 154.89-24.9Q150.74-8.75 150.04-5.2L150.04-5.2Q149.74-3.7 149.74-2.9L149.74-2.9Q149.74-1.55 150.04-0.25L150.04-0.25Q149.94 0.05 149.26 0.35 148.59 0.65 148.04 0.65L148.04 0.65Q147.04 0.65 145.84 0.4 144.64 0.15 144.34-0.15L144.34-0.15Q143.89-0.55 143.89-1.75L143.89-1.75Q143.89-2.65 144.09-3.45L144.09-3.45Q143.04-1.95 140.91-0.98 138.79 0 137.49 0L137.49 0Q129.84 0 129.84-8.25L129.84-8.25Q129.84-11.85 131.46-15.45 133.09-19.05 136.11-21.4 139.14-23.75 143.14-23.75L143.14-23.75Q144.24-23.75 145.59-22.88 146.94-22 147.79-20.9L147.79-20.9Q148.89-25.55 149.74-28.65L149.74-28.65Q150.14-30.3 150.66-32.43 151.19-34.55 151.79-37.05L151.79-37.05ZM146.69-16.25Q146.39-17.35 145.26-18.28 144.14-19.2 143.44-19.2L143.44-19.2Q141.14-19.2 139.14-17.7 137.14-16.2 135.96-13.8 134.79-11.4 134.79-8.85L134.79-8.85Q134.79-6.95 135.49-5.45 136.19-3.95 137.64-3.95L137.64-3.95Q138.89-3.95 140.56-4.78 142.24-5.6 143.54-6.93 144.84-8.25 145.14-9.65L145.14-9.65 146.69-16.25ZM174.78-29.7Q174.78-31.25 175.76-32.45 176.73-33.65 178.48-33.65L178.48-33.65Q180.33-33.65 181.71-32.5 183.08-31.35 183.08-29.9L183.08-29.9Q183.08-28.45 181.68-27.4 180.28-26.35 178.43-26.35L178.43-26.35Q176.63-26.35 175.71-27.28 174.78-28.2 174.78-29.7L174.78-29.7ZM180.03-20.85Q177.38-10.05 175.98-4.6L175.98-4.6Q175.78-3.8 175.78-2.85L175.78-2.85 175.83-1.45Q175.83-0.6 175.31-0.25 174.78 0.1 173.08 0.15L173.08 0.15Q171.43 0.15 170.58-0.2 169.73-0.55 169.73-1.7L169.73-1.7Q169.73-2.25 171.01-7.55 172.28-12.85 174.48-21.35L174.48-21.35 173.33-22.85Q173.18-23 173.18-23.2L173.18-23.2Q173.18-23.7 174.28-24.03 175.38-24.35 177.33-24.35L177.33-24.35Q179.03-24.35 179.51-23.38 179.98-22.4 180.03-20.85L180.03-20.85ZM185.98-22.85Q185.83-23 185.83-23.2L185.83-23.2Q185.83-23.7 186.93-24.03 188.03-24.35 189.98-24.35L189.98-24.35Q191.78-24.35 192.63-23.43 193.48-22.5 193.63-21.2L193.63-21.2 192.73-17.95Q193.78-19.4 195.68-20.73 197.58-22.05 199.53-22.85 201.48-23.65 202.73-23.65L202.73-23.65Q205.38-23.65 206.58-22.68 207.78-21.7 207.78-19.6L207.78-19.6Q204.83-11.9 203.88-3L203.88-3 204.58-0.55Q203.98 0.6 202.91 1.28 201.83 1.95 199.78 1.95L199.78 1.95Q198.58 1.95 198.03 1.15 197.48 0.35 197.48-0.85L197.48-0.85Q197.48-4.2 198.46-8.22 199.43-12.25 200.73-16.45L200.73-16.45Q201.23-18.05 201.23-18.1L201.23-18.1Q201.23-18.8 200.43-18.8L200.43-18.8Q199.33-18.8 197.11-17.25 194.88-15.7 192.53-12.03 190.18-8.35 188.73-2.4L188.73-2.4Q188.63-2.1 188.48-1.3 188.33-0.5 187.68-0.18 187.03 0.15 185.58 0.15L185.58 0.15Q183.93 0.15 183.16-0.2 182.38-0.55 182.38-1.7L182.38-1.7Q182.53-2.4 182.83-3.4L182.83-3.4Q185.73-15.05 187.28-21.35L187.28-21.35 185.98-22.85ZM250.23-8.7Q249.48-6.45 247.25-4.17 245.03-1.9 241.65-0.43 238.28 1.05 234.28 1.05L234.28 1.05Q228.18 1.05 225.33-1.93 222.48-4.9 222.48-9.55L222.48-9.55Q222.48-16.15 225.43-21.53 228.38-26.9 233.38-29.98 238.38-33.05 244.18-33.05L244.18-33.05Q246.48-33.05 248.38-32 250.28-30.95 251.38-28.98 252.48-27 252.48-24.35L252.48-24.35Q252.48-22.85 251.35-21.8 250.23-20.75 248.33-20.75L248.33-20.75Q246.83-20.75 246.3-21.55 245.78-22.35 245.78-23.6L245.78-23.6 245.83-25.2Q245.83-26.1 244.83-26.95 243.83-27.8 242.98-27.8L242.98-27.8Q240.18-27.8 236.83-25.28 233.48-22.75 231.18-18.48 228.88-14.2 228.88-9.2L228.88-9.2Q228.88-6.9 230.68-5.45 232.48-4 235.23-4L235.23-4Q236.13-4 237.58-4.6 239.03-5.2 240.25-6.1 241.48-7 241.88-7.85L241.88-7.85Q242.48-9.1 243.58-10.65 244.68-12.2 245.78-12.2L245.78-12.2Q248.33-12.2 249.25-11.1 250.18-10 250.23-8.7L250.23-8.7ZM263.57 1.05Q259.17 1.05 256.72-1.95 254.27-4.95 254.27-9.6L254.27-9.6Q254.27-13.5 256.15-16.95 258.02-20.4 261.27-22.5 264.52-24.6 268.42-24.6L268.42-24.6Q272.27-24.6 274.75-22.08 277.22-19.55 277.22-14.65L277.22-14.65Q277.22-11.2 275.32-7.5 273.42-3.8 270.25-1.38 267.07 1.05 263.57 1.05L263.57 1.05ZM264.32-2.95Q265.92-2.95 267.55-4.95 269.17-6.95 270.22-10 271.27-13.05 271.27-15.95L271.27-15.95Q271.27-20.4 267.57-20.4L267.57-20.4Q265.52-20.4 263.82-18.45 262.12-16.5 261.12-13.63 260.12-10.75 260.12-8.25L260.12-8.25Q260.12-6.8 260.77-5.58 261.42-4.35 262.4-3.65 263.37-2.95 264.32-2.95L264.32-2.95ZM282.17-22.85Q282.02-23 282.02-23.2L282.02-23.2Q282.02-23.7 283.12-24.03 284.22-24.35 286.17-24.35L286.17-24.35Q287.92-24.35 288.52-23.38 289.12-22.4 289.27-20.85L289.27-20.85Q289.17-20.45 289.07-19.75L289.07-19.75 288.82-18.55Q290.27-20.25 293.12-21.88 295.97-23.5 297.57-23.5L297.57-23.5Q300.07-23.5 301.05-22.63 302.02-21.75 302.17-19.3L302.17-19.3Q304.02-21.05 306.42-22.28 308.82-23.5 310.62-23.5L310.62-23.5Q312.52-23.5 314.12-22.73 315.72-21.95 315.72-20.25L315.72-20.25Q315.72-19.8 315.67-19.55L315.67-19.55Q315.52-18.75 315.1-17.32 314.67-15.9 314.47-15.25L314.47-15.25Q313.22-11.2 312.55-8.43 311.87-5.65 311.72-3L311.72-3 312.42-0.55Q311.82 0.6 310.75 1.28 309.67 1.95 307.62 1.95L307.62 1.95Q306.42 1.95 305.87 1.15 305.32 0.35 305.32-0.85L305.32-0.85Q305.32-1.1 305.37-1.4 305.42-1.7 305.42-1.95L305.42-1.95Q305.52-4.75 306.25-7.63 306.97-10.5 308.12-14.1L308.12-14.1Q309.17-17.25 309.17-17.95L309.17-17.95Q309.17-18.25 309.1-18.57 309.02-18.9 308.92-18.9L308.92-18.9Q307.77-18.9 305.14-17.8 302.52-16.7 301.62-15.6L301.62-15.6Q300.67-12.55 298.47-2.9L298.47-2.9 298.17-1.5Q297.92-0.2 297.69 0.3 297.47 0.8 296.82 1.05 296.17 1.3 294.72 1.3L294.72 1.3Q291.27 1.3 291.27-0.1L291.27-0.1Q291.67-1.2 293.47-8.55L293.47-8.55Q294.57-13.1 295.97-18.6L295.97-18.6Q295.67-18.45 294.87-18.15L294.87-18.15Q292.47-17.2 290.69-16.2 288.92-15.2 287.82-13.85L287.82-13.85 286.52-8.55Q286.22-7.35 285.97-6.33 285.72-5.3 285.52-4.6L285.52-4.6Q285.27-3.75 285.17-2.3L285.17-2.3Q285.07-1.3 284.89-0.85 284.72-0.4 284.05-0.13 283.37 0.15 281.92 0.15L281.92 0.15Q280.27 0.15 279.42-0.2 278.57-0.55 278.57-1.7L278.57-1.7Q278.57-2.25 279.85-7.55 281.12-12.85 283.32-21.35L283.32-21.35 282.17-22.85ZM320.57-22.85Q320.42-23 320.42-23.2L320.42-23.2Q320.42-23.7 321.52-24.03 322.62-24.35 324.57-24.35L324.57-24.35Q326.32-24.35 326.92-23.38 327.52-22.4 327.67-20.85L327.67-20.85Q327.57-20.45 327.47-19.75L327.47-19.75 327.22-18.55Q328.67-20.25 331.52-21.88 334.37-23.5 335.97-23.5L335.97-23.5Q338.47-23.5 339.44-22.63 340.42-21.75 340.57-19.3L340.57-19.3Q342.42-21.05 344.82-22.28 347.22-23.5 349.02-23.5L349.02-23.5Q350.92-23.5 352.52-22.73 354.12-21.95 354.12-20.25L354.12-20.25Q354.12-19.8 354.07-19.55L354.07-19.55Q353.92-18.75 353.49-17.32 353.07-15.9 352.87-15.25L352.87-15.25Q351.62-11.2 350.94-8.43 350.27-5.65 350.12-3L350.12-3 350.82-0.55Q350.22 0.6 349.14 1.28 348.07 1.95 346.02 1.95L346.02 1.95Q344.82 1.95 344.27 1.15 343.72 0.35 343.72-0.85L343.72-0.85Q343.72-1.1 343.77-1.4 343.82-1.7 343.82-1.95L343.82-1.95Q343.92-4.75 344.64-7.63 345.37-10.5 346.52-14.1L346.52-14.1Q347.57-17.25 347.57-17.95L347.57-17.95Q347.57-18.25 347.49-18.57 347.42-18.9 347.32-18.9L347.32-18.9Q346.17-18.9 343.54-17.8 340.92-16.7 340.02-15.6L340.02-15.6Q339.07-12.55 336.87-2.9L336.87-2.9 336.57-1.5Q336.32-0.2 336.09 0.3 335.87 0.8 335.22 1.05 334.57 1.3 333.12 1.3L333.12 1.3Q329.67 1.3 329.67-0.1L329.67-0.1Q330.07-1.2 331.87-8.55L331.87-8.55Q332.97-13.1 334.37-18.6L334.37-18.6Q334.07-18.45 333.27-18.15L333.27-18.15Q330.87-17.2 329.09-16.2 327.32-15.2 326.22-13.85L326.22-13.85 324.92-8.55Q324.62-7.35 324.37-6.33 324.12-5.3 323.92-4.6L323.92-4.6Q323.67-3.75 323.57-2.3L323.57-2.3Q323.47-1.3 323.29-0.85 323.12-0.4 322.44-0.13 321.77 0.15 320.32 0.15L320.32 0.15Q318.67 0.15 317.82-0.2 316.97-0.55 316.97-1.7L316.97-1.7Q316.97-2.25 318.24-7.55 319.52-12.85 321.72-21.35L321.72-21.35 320.57-22.85ZM376.12-0.15Q375.92 0.7 375.22 1.03 374.52 1.35 373.37 1.35L373.37 1.35Q369.92 1.35 369.92-0.2L369.92-0.2 370.22-2.1Q368.81-1.05 366.92 0 365.02 1.05 363.77 1.05L363.77 1.05Q356.37 1.05 356.37-3.8L356.37-3.8Q356.37-12.05 361.31-21.7L361.31-21.7Q361.92-22.85 362.59-23.35 363.27-23.85 364.92-23.85L364.92-23.85Q366.67-23.85 367.54-23.38 368.42-22.9 368.42-22.25L368.42-22.25Q368.42-22.1 367.87-21.35L367.87-21.35Q367.31-20.7 366.92-20.05L366.92-20.05Q362.22-12.2 362.22-4.75L362.22-4.75Q362.22-4.1 362.72-3.6 363.22-3.1 363.62-3.1L363.62-3.1Q364.72-3.1 367.34-4.15 369.97-5.2 371.37-6.3L371.37-6.3 372.37-10.35Q374.17-17.6 374.62-19.25L374.62-19.25Q375.17-21.25 376.04-22.53 376.92-23.8 378.81-23.8L378.81-23.8Q381.47-23.8 381.47-22.2L381.47-22.2Q381.47-21.95 381.34-21.58 381.22-21.2 381.17-20.95L381.17-20.95 379.17-12.85Q376.77-3.2 376.12-0.15L376.12-0.15ZM386.11-22.85Q385.96-23 385.96-23.2L385.96-23.2Q385.96-23.7 387.06-24.03 388.16-24.35 390.11-24.35L390.11-24.35Q391.91-24.35 392.76-23.43 393.61-22.5 393.76-21.2L393.76-21.2 392.86-17.95Q393.91-19.4 395.81-20.73 397.71-22.05 399.66-22.85 401.61-23.65 402.86-23.65L402.86-23.65Q405.51-23.65 406.71-22.68 407.91-21.7 407.91-19.6L407.91-19.6Q404.96-11.9 404.01-3L404.01-3 404.71-0.55Q404.11 0.6 403.04 1.28 401.96 1.95 399.91 1.95L399.91 1.95Q398.71 1.95 398.16 1.15 397.61 0.35 397.61-0.85L397.61-0.85Q397.61-4.2 398.59-8.22 399.56-12.25 400.86-16.45L400.86-16.45Q401.36-18.05 401.36-18.1L401.36-18.1Q401.36-18.8 400.56-18.8L400.56-18.8Q399.46-18.8 397.24-17.25 395.01-15.7 392.66-12.03 390.31-8.35 388.86-2.4L388.86-2.4Q388.76-2.1 388.61-1.3 388.46-0.5 387.81-0.18 387.16 0.15 385.71 0.15L385.71 0.15Q384.06 0.15 383.29-0.2 382.51-0.55 382.51-1.7L382.51-1.7Q382.66-2.4 382.96-3.4L382.96-3.4Q385.86-15.05 387.41-21.35L387.41-21.35 386.11-22.85ZM415.66-29.7Q415.66-31.25 416.64-32.45 417.61-33.65 419.36-33.65L419.36-33.65Q421.21-33.65 422.59-32.5 423.96-31.35 423.96-29.9L423.96-29.9Q423.96-28.45 422.56-27.4 421.16-26.35 419.31-26.35L419.31-26.35Q417.51-26.35 416.59-27.28 415.66-28.2 415.66-29.7L415.66-29.7ZM420.91-20.85Q418.26-10.05 416.86-4.6L416.86-4.6Q416.66-3.8 416.66-2.85L416.66-2.85 416.71-1.45Q416.71-0.6 416.19-0.25 415.66 0.1 413.96 0.15L413.96 0.15Q412.31 0.15 411.46-0.2 410.61-0.55 410.61-1.7L410.61-1.7Q410.61-2.25 411.89-7.55 413.16-12.85 415.36-21.35L415.36-21.35 414.21-22.85Q414.06-23 414.06-23.2L414.06-23.2Q414.06-23.7 415.16-24.03 416.26-24.35 418.21-24.35L418.21-24.35Q419.91-24.35 420.39-23.38 420.86-22.4 420.91-20.85L420.91-20.85ZM434.21-18.1L431.06-5.5Q431.06-4.35 431.66-3.68 432.26-3 433.36-3L433.36-3Q434.86-3 435.83-3.88 436.81-4.75 437.91-6.35L437.91-6.35Q438.71-7.5 439.21-8 439.71-8.5 440.36-8.5L440.36-8.5Q441.66-8.5 442.21-8.18 442.76-7.85 442.76-6.85L442.76-6.85Q442.76-6.4 442.66-5.78 442.56-5.15 442.41-4.85L442.41-4.85Q441.21-2.3 438.48-0.45 435.76 1.4 432.31 1.4L432.31 1.4Q428.86 1.4 427.11-0.28 425.36-1.95 425.36-5.05L425.36-5.05Q425.36-5.5 425.81-7.4 426.26-9.3 426.96-11.95L426.96-11.95 428.36-17.65 425.31-17.4Q424.71-17.4 424.41-17.85 424.11-18.3 424.11-18.95L424.11-18.95Q424.11-20.2 425.01-21.45L425.01-21.45Q425.11-21.6 426.01-21.75 426.91-21.9 428.21-22.05L428.21-22.05 429.56-22.2 431.26-29.5Q431.76-30.8 432.78-31.53 433.81-32.25 434.71-32.25L434.71-32.25Q435.71-32.25 436.41-31.65 437.11-31.05 437.16-30.25L437.16-30.25 435.36-22.75Q437.31-23 438.98-23.18 440.66-23.35 441.61-23.35L441.61-23.35Q443.51-23.35 443.51-21.15L443.51-21.15Q443.51-20.3 442.78-19.63 442.06-18.95 441.21-18.8L441.21-18.8 434.21-18.1ZM459.56-2.1Q457.86-0.5 456.26 0.28 454.66 1.05 452.66 1.05L452.66 1.05Q449.36 1.05 447.58-1 445.81-3.05 445.81-6.45L445.81-6.45Q445.81-7.45 446.11-8.65L446.11-8.65 449.46-21.7Q449.76-22.8 450.53-23.33 451.31-23.85 453.06-23.85L453.06-23.85Q455.66-23.85 455.66-22.4L455.66-22.4Q455.66-21.8 455.31-20.5L455.31-20.5 451.96-7.1Q451.81-6.5 451.81-5.9L451.81-5.9Q451.81-4.85 452.36-4.2 452.91-3.55 454.11-3.55L454.11-3.55Q455.66-3.55 457.46-4.45 459.26-5.35 460.51-6.65L460.51-6.65 461.46-10.6Q462.41-14.6 463.66-19.25L463.66-19.25Q464.21-21.25 465.08-22.53 465.96-23.8 467.86-23.8L467.86-23.8Q470.51-23.8 470.51-22.2L470.51-22.2Q470.51-21.95 470.38-21.58 470.26-21.2 470.21-20.95L470.21-20.95 468.56-14.1Q465.96-3.2 465.16-0.15L465.16-0.15Q463.86 4.85 462.21 7.7 460.56 10.55 458.08 11.8 455.61 13.05 451.76 13.05L451.76 13.05Q449.31 13.05 447.73 12.35 446.16 11.65 445.43 10.65 444.71 9.65 444.71 8.8L444.71 8.8Q444.71 6.35 447.41 6.35L447.41 6.35Q448.16 6.35 448.63 6.65 449.11 6.95 449.61 7.5L449.61 7.5Q450.36 8.2 450.98 8.55 451.61 8.9 452.71 8.9L452.71 8.9Q453.56 8.9 454.61 8.2 455.66 7.5 456.66 6 457.66 4.5 458.31 2.25L458.31 2.25 459.56-2.1ZM470.15 9.05Q468.6 9.05 468.6 8L468.6 8Q468.6 6.95 469.08 6.03 469.55 5.1 470.55 3.7L470.55 3.7Q471.5 2.4 472 1.45 472.5 0.5 472.5-0.55L472.5-0.55Q472.5-1 472.4-1.6 472.3-2.2 472.3-2.65L472.3-2.65Q472.3-3.7 472.95-4.28 473.6-4.85 475.65-4.85L475.65-4.85Q477.15-4.85 478.1-3.93 479.05-3 479.05-2.1L479.05-2.1Q479.05-0.05 477.45 2.3 475.85 4.65 473 7.8L473 7.8Q472.45 8.35 471.7 8.7 470.95 9.05 470.15 9.05L470.15 9.05ZM521.1-18.25Q523.15-18.25 524.12-17.53 525.1-16.8 525.35-15.78 525.6-14.75 525.6-13.15L525.6-13.15Q525.6-8.95 523.3-5.73 521-2.5 517.3-0.73 513.6 1.05 509.45 1.05L509.45 1.05Q503.45 1.05 500.65-2.3 497.85-5.65 497.85-10.5L497.85-10.5Q497.85-16.25 500.92-21.48 504-26.7 508.52-29.88 513.05-33.05 517.05-33.05L517.05-33.05Q522.65-33.05 525.15-30.83 527.65-28.6 527.65-24.35L527.65-24.35Q527.65-22.85 526.52-21.8 525.4-20.75 523.5-20.75L523.5-20.75Q522-20.75 521.47-21.55 520.95-22.35 520.95-23.6L520.95-23.6 521-25.2Q521-26.1 520-26.95 519-27.8 518.15-27.8L518.15-27.8Q515.35-27.8 512-25.28 508.65-22.75 506.35-18.48 504.05-14.2 504.05-9.2L504.05-9.2Q504.05-6.9 505.85-5.45 507.65-4 510.4-4L510.4-4Q512.35-4 514.5-5.18 516.65-6.35 518.12-8.38 519.6-10.4 519.6-12.7L519.6-12.7Q518.9-12.6 517.55-12.25L517.55-12.25Q515.6-11.75 514.22-11.5 512.85-11.25 511.5-11.25L511.5-11.25Q509.9-11.25 509.12-11.68 508.35-12.1 508.35-13.2L508.35-13.2Q508.35-13.95 508.72-14.95 509.1-15.95 509.65-16.4L509.65-16.4Q512.15-17.05 515.42-17.65 518.7-18.25 521.1-18.25L521.1-18.25ZM534.89-1.9Q534.85-1.6 534.67-0.73 534.5 0.15 533.82 0.5 533.14 0.85 531.7 0.85L531.7 0.85Q530.05 0.85 529.3 0.5 528.55 0.15 528.55-1L528.55-1 530.95-10.55Q532.95-18.8 533.6-21.05L533.6-21.05 532.35-22.55Q532.2-22.7 532.2-22.9L532.2-22.9Q532.2-23.4 533.3-23.73 534.39-24.05 536.35-24.05L536.35-24.05Q538.1-24.05 538.7-23.08 539.3-22.1 539.45-20.55L539.45-20.55 539.1-19.25Q540.7-21.2 542.82-22.48 544.95-23.75 546.6-23.75L546.6-23.75Q548.75-23.75 549.95-23 551.14-22.25 551.14-21.05L551.14-21.05Q551.14-20 550.42-18.88 549.7-17.75 548.6-16.98 547.5-16.2 546.45-16.1L546.45-16.1Q545.45-16.1 545.1-16.35 544.75-16.6 544.75-17.1L544.75-17.1 545.05-18.75Q541.05-17.65 537.8-13.45L537.8-13.45 534.89-1.9ZM559.19 1.05Q554.79 1.05 552.34-1.95 549.89-4.95 549.89-9.6L549.89-9.6Q549.89-13.5 551.77-16.95 553.64-20.4 556.89-22.5 560.14-24.6 564.04-24.6L564.04-24.6Q567.89-24.6 570.37-22.08 572.84-19.55 572.84-14.65L572.84-14.65Q572.84-11.2 570.94-7.5 569.04-3.8 565.87-1.38 562.69 1.05 559.19 1.05L559.19 1.05ZM559.94-2.95Q561.54-2.95 563.17-4.95 564.79-6.95 565.84-10 566.89-13.05 566.89-15.95L566.89-15.95Q566.89-20.4 563.19-20.4L563.19-20.4Q561.14-20.4 559.44-18.45 557.74-16.5 556.74-13.63 555.74-10.75 555.74-8.25L555.74-8.25Q555.74-6.8 556.39-5.58 557.04-4.35 558.02-3.65 558.99-2.95 559.94-2.95L559.94-2.95ZM591.09-10.8Q589.34-5.3 586.61-2.2 583.89 0.9 581.09 0.9L581.09 0.9Q576.09 0.9 576.09-8.1L576.09-8.1Q576.09-11.85 577.01-15.45 577.94-19.05 579.09-21.65L579.09-21.65Q579.99-23.75 582.29-23.75L582.29-23.75Q584.89-23.75 584.89-21.45L584.89-21.45Q584.89-21.2 584.29-19.5L584.29-19.5Q581.59-12.2 581.59-8.3L581.59-8.3Q581.59-6.45 581.91-5.28 582.24-4.1 582.99-4.1L582.99-4.1Q584.34-4.1 586.01-7.18 587.69-10.25 589.11-14.53 590.54-18.8 591.14-22L591.14-22Q591.24-22.65 592.11-23.15 592.99-23.65 593.64-23.65L593.64-23.65Q594.94-23.65 595.49-23.08 596.04-22.5 596.04-21.25L596.04-21.25Q596.04-21 595.74-19.7L595.74-19.7Q594.99-15.7 594.56-12.93 594.14-10.15 594.14-7.75L594.14-7.75Q594.14-6.15 594.66-5.13 595.19-4.1 595.99-4.1L595.99-4.1Q598.29-4.1 600.21-9.8 602.14-15.5 603.34-22.1L603.34-22.1Q603.54-23.4 605.54-23.4L605.54-23.4Q606.64-23.4 607.69-23.03 608.74-22.65 608.79-22.2L608.79-22.2 608.24-19.65Q606.84-13.1 605.59-9.1 604.34-5.1 601.84-2.1 599.34 0.9 595.34 0.9L595.34 0.9Q590.89 0.9 590.89-6.2L590.89-6.2Q590.89-8.4 591.29-10.8L591.29-10.8 591.09-10.8ZM615.29-29.7Q615.29-31.25 616.26-32.45 617.24-33.65 618.99-33.65L618.99-33.65Q620.84-33.65 622.21-32.5 623.59-31.35 623.59-29.9L623.59-29.9Q623.59-28.45 622.19-27.4 620.79-26.35 618.94-26.35L618.94-26.35Q617.14-26.35 616.21-27.28 615.29-28.2 615.29-29.7L615.29-29.7ZM620.54-20.85Q617.89-10.05 616.49-4.6L616.49-4.6Q616.29-3.8 616.29-2.85L616.29-2.85 616.34-1.45Q616.34-0.6 615.81-0.25 615.29 0.1 613.59 0.15L613.59 0.15Q611.94 0.15 611.09-0.2 610.24-0.55 610.24-1.7L610.24-1.7Q610.24-2.25 611.51-7.55 612.79-12.85 614.99-21.35L614.99-21.35 613.84-22.85Q613.69-23 613.69-23.2L613.69-23.2Q613.69-23.7 614.79-24.03 615.89-24.35 617.84-24.35L617.84-24.35Q619.54-24.35 620.01-23.38 620.49-22.4 620.54-20.85L620.54-20.85ZM626.48-22.85Q626.33-23 626.33-23.2L626.33-23.2Q626.33-23.7 627.43-24.03 628.53-24.35 630.48-24.35L630.48-24.35Q632.28-24.35 633.13-23.43 633.98-22.5 634.13-21.2L634.13-21.2 633.23-17.95Q634.28-19.4 636.18-20.73 638.08-22.05 640.03-22.85 641.98-23.65 643.23-23.65L643.23-23.65Q645.88-23.65 647.08-22.68 648.28-21.7 648.28-19.6L648.28-19.6Q645.33-11.9 644.38-3L644.38-3 645.08-0.55Q644.48 0.6 643.41 1.28 642.33 1.95 640.28 1.95L640.28 1.95Q639.08 1.95 638.53 1.15 637.98 0.35 637.98-0.85L637.98-0.85Q637.98-4.2 638.96-8.22 639.93-12.25 641.23-16.45L641.23-16.45Q641.73-18.05 641.73-18.1L641.73-18.1Q641.73-18.8 640.93-18.8L640.93-18.8Q639.83-18.8 637.61-17.25 635.38-15.7 633.03-12.03 630.68-8.35 629.23-2.4L629.23-2.4Q629.13-2.1 628.98-1.3 628.83-0.5 628.18-0.18 627.53 0.15 626.08 0.15L626.08 0.15Q624.43 0.15 623.66-0.2 622.88-0.55 622.88-1.7L622.88-1.7Q623.03-2.4 623.33-3.4L623.33-3.4Q626.23-15.05 627.78-21.35L627.78-21.35 626.48-22.85ZM655.73 11.35Q653.43 11.35 651.41 10.35 649.38 9.35 648.01 7.78 646.63 6.2 646.03 4.6L646.03 4.6Q646.08 3.7 646.91 2.83 647.73 1.95 649.78 1.95L649.78 1.95Q650.43 1.95 650.91 2.45 651.38 2.95 651.98 4.05L651.98 4.05Q652.78 5.55 653.66 6.38 654.53 7.2 656.08 7.2L656.08 7.2Q657.83 7.2 659.46 5.83 661.08 4.45 662.26 2.1 663.43-0.25 663.88-3.1L663.88-3.1Q662.78-1.6 661.36-0.8 659.93 0 658.68 0L658.68 0Q654.68 0 652.36-1.78 650.03-3.55 650.03-8.1L650.03-8.1Q650.03-12.2 652.31-15.75 654.58-19.3 658.38-21.4 662.18-23.5 666.53-23.5L666.53-23.5Q669.38-23.5 670.76-22.35 672.13-21.2 672.43-19.45L672.43-19.45Q673.28-19.05 673.33-18.65L673.33-18.65Q673.33-18.5 673.13-17.6L673.13-17.6Q672.18-13.5 669.13-1.4L669.13-1.4 668.58 0.8Q667.33 5.65 663.81 8.5 660.28 11.35 655.73 11.35L655.73 11.35ZM667.03-18.35Q666.63-19.05 666.26-19.25 665.88-19.45 665.13-19.45L665.13-19.45Q662.78-19.45 660.58-17.93 658.38-16.4 657.03-13.98 655.68-11.55 655.68-9L655.68-9Q655.68-7.15 656.36-5.8 657.03-4.45 658.53-4.25L658.53-4.25Q660.53-4.6 662.31-6.05 664.08-7.5 664.73-9.8L664.73-9.8 667.03-18.35ZM701.03-16.9L696.48 1.7Q696.08 2.5 695.2 3.1 694.33 3.7 693.33 3.7L693.33 3.7Q692.43 3.7 691.5 3.03 690.58 2.35 690.58 1.25L690.58 1.25 690.58 0.95 694.83-16.4 690.18-16Q688.63-16 688.63-17.55L688.63-17.55Q688.63-18.8 689.53-20.05L689.53-20.05Q689.68-20.25 696.08-20.95L696.08-20.95 696.98-25.1Q698.18-30.3 700.8-32.98 703.43-35.65 708.23-35.65L708.23-35.65Q710.53-35.65 712.23-34.65 713.93-33.65 714.78-32.1 715.63-30.55 715.63-28.95L715.63-28.95Q715.63-27.7 715.05-26.95 714.48-26.2 712.68-26.2L712.68-26.2Q712.03-26.2 711.75-26.6 711.48-27 711.18-27.95L711.18-27.95Q710.83-29.2 710.23-29.9 709.63-30.6 708.13-30.6L708.13-30.6Q706.43-30.6 705.25-29.68 704.08-28.75 703.73-27.45L703.73-27.45 702.18-21.55 705.23-21.85Q707.23-22.05 707.38-22.05L707.38-22.05Q709.28-22.05 709.28-19.85L709.28-19.85Q709.28-19 708.55-18.32 707.83-17.65 706.98-17.5L706.98-17.5 701.03-16.9ZM720.27 1.05Q715.87 1.05 713.42-1.95 710.97-4.95 710.97-9.6L710.97-9.6Q710.97-13.5 712.85-16.95 714.72-20.4 717.97-22.5 721.22-24.6 725.12-24.6L725.12-24.6Q728.97-24.6 731.45-22.08 733.92-19.55 733.92-14.65L733.92-14.65Q733.92-11.2 732.02-7.5 730.12-3.8 726.95-1.38 723.77 1.05 720.27 1.05L720.27 1.05ZM721.02-2.95Q722.62-2.95 724.25-4.95 725.87-6.95 726.92-10 727.97-13.05 727.97-15.95L727.97-15.95Q727.97-20.4 724.27-20.4L724.27-20.4Q722.22-20.4 720.52-18.45 718.82-16.5 717.82-13.63 716.82-10.75 716.82-8.25L716.82-8.25Q716.82-6.8 717.47-5.58 718.12-4.35 719.1-3.65 720.07-2.95 721.02-2.95L721.02-2.95ZM741.87-1.9Q741.82-1.6 741.65-0.73 741.47 0.15 740.8 0.5 740.12 0.85 738.67 0.85L738.67 0.85Q737.02 0.85 736.27 0.5 735.52 0.15 735.52-1L735.52-1 737.92-10.55Q739.92-18.8 740.57-21.05L740.57-21.05 739.32-22.55Q739.17-22.7 739.17-22.9L739.17-22.9Q739.17-23.4 740.27-23.73 741.37-24.05 743.32-24.05L743.32-24.05Q745.07-24.05 745.67-23.08 746.27-22.1 746.42-20.55L746.42-20.55 746.07-19.25Q747.67-21.2 749.8-22.48 751.92-23.75 753.57-23.75L753.57-23.75Q755.72-23.75 756.92-23 758.12-22.25 758.12-21.05L758.12-21.05Q758.12-20 757.4-18.88 756.67-17.75 755.57-16.98 754.47-16.2 753.42-16.1L753.42-16.1Q752.42-16.1 752.07-16.35 751.72-16.6 751.72-17.1L751.72-17.1 752.02-18.75Q748.02-17.65 744.77-13.45L744.77-13.45 741.87-1.9ZM792.72-18.25Q794.77-18.25 795.74-17.53 796.72-16.8 796.97-15.78 797.22-14.75 797.22-13.15L797.22-13.15Q797.22-8.95 794.92-5.73 792.62-2.5 788.92-0.73 785.22 1.05 781.07 1.05L781.07 1.05Q775.07 1.05 772.27-2.3 769.47-5.65 769.47-10.5L769.47-10.5Q769.47-16.25 772.54-21.48 775.62-26.7 780.14-29.88 784.67-33.05 788.67-33.05L788.67-33.05Q794.27-33.05 796.77-30.83 799.27-28.6 799.27-24.35L799.27-24.35Q799.27-22.85 798.14-21.8 797.02-20.75 795.12-20.75L795.12-20.75Q793.62-20.75 793.09-21.55 792.57-22.35 792.57-23.6L792.57-23.6 792.62-25.2Q792.62-26.1 791.62-26.95 790.62-27.8 789.77-27.8L789.77-27.8Q786.97-27.8 783.62-25.28 780.27-22.75 777.97-18.48 775.67-14.2 775.67-9.2L775.67-9.2Q775.67-6.9 777.47-5.45 779.27-4 782.02-4L782.02-4Q783.97-4 786.12-5.18 788.27-6.35 789.74-8.38 791.22-10.4 791.22-12.7L791.22-12.7Q790.52-12.6 789.17-12.25L789.17-12.25Q787.22-11.75 785.84-11.5 784.47-11.25 783.12-11.25L783.12-11.25Q781.52-11.25 780.74-11.68 779.97-12.1 779.97-13.2L779.97-13.2Q779.97-13.95 780.34-14.95 780.72-15.95 781.27-16.4L781.27-16.4Q783.77-17.05 787.04-17.65 790.32-18.25 792.72-18.25L792.72-18.25ZM810.31 1.05Q805.91 1.05 803.46-1.95 801.01-4.95 801.01-9.6L801.01-9.6Q801.01-13.5 802.89-16.95 804.76-20.4 808.01-22.5 811.26-24.6 815.16-24.6L815.16-24.6Q819.01-24.6 821.49-22.08 823.96-19.55 823.96-14.65L823.96-14.65Q823.96-11.2 822.06-7.5 820.16-3.8 816.99-1.38 813.81 1.05 810.31 1.05L810.31 1.05ZM811.06-2.95Q812.66-2.95 814.29-4.95 815.91-6.95 816.96-10 818.01-13.05 818.01-15.95L818.01-15.95Q818.01-20.4 814.31-20.4L814.31-20.4Q812.26-20.4 810.56-18.45 808.86-16.5 807.86-13.63 806.86-10.75 806.86-8.25L806.86-8.25Q806.86-6.8 807.51-5.58 808.16-4.35 809.14-3.65 810.11-2.95 811.06-2.95L811.06-2.95ZM835.71 1.05Q831.31 1.05 828.86-1.95 826.41-4.95 826.41-9.6L826.41-9.6Q826.41-13.5 828.29-16.95 830.16-20.4 833.41-22.5 836.66-24.6 840.56-24.6L840.56-24.6Q844.41-24.6 846.89-22.08 849.36-19.55 849.36-14.65L849.36-14.65Q849.36-11.2 847.46-7.5 845.56-3.8 842.39-1.38 839.21 1.05 835.71 1.05L835.71 1.05ZM836.46-2.95Q838.06-2.95 839.69-4.95 841.31-6.95 842.36-10 843.41-13.05 843.41-15.95L843.41-15.95Q843.41-20.4 839.71-20.4L839.71-20.4Q837.66-20.4 835.96-18.45 834.26-16.5 833.26-13.63 832.26-10.75 832.26-8.25L832.26-8.25Q832.26-6.8 832.91-5.58 833.56-4.35 834.54-3.65 835.51-2.95 836.46-2.95L836.46-2.95ZM873.61-37.05Q873.81-37.8 874.78-38.27 875.76-38.75 876.86-38.75L876.86-38.75Q877.76-38.75 878.81-38.35 879.86-37.95 879.86-37.2L879.86-37.2 876.71-24.9Q872.56-8.75 871.86-5.2L871.86-5.2Q871.56-3.7 871.56-2.9L871.56-2.9Q871.56-1.55 871.86-0.25L871.86-0.25Q871.76 0.05 871.08 0.35 870.41 0.65 869.86 0.65L869.86 0.65Q868.86 0.65 867.66 0.4 866.46 0.15 866.16-0.15L866.16-0.15Q865.71-0.55 865.71-1.75L865.71-1.75Q865.71-2.65 865.91-3.45L865.91-3.45Q864.86-1.95 862.73-0.98 860.61 0 859.31 0L859.31 0Q851.66 0 851.66-8.25L851.66-8.25Q851.66-11.85 853.28-15.45 854.91-19.05 857.93-21.4 860.96-23.75 864.96-23.75L864.96-23.75Q866.06-23.75 867.41-22.88 868.76-22 869.61-20.9L869.61-20.9Q870.71-25.55 871.56-28.65L871.56-28.65Q871.96-30.3 872.48-32.43 873.01-34.55 873.61-37.05L873.61-37.05ZM868.51-16.25Q868.21-17.35 867.08-18.28 865.96-19.2 865.26-19.2L865.26-19.2Q862.96-19.2 860.96-17.7 858.96-16.2 857.78-13.8 856.61-11.4 856.61-8.85L856.61-8.85Q856.61-6.95 857.31-5.45 858.01-3.95 859.46-3.95L859.46-3.95Q860.71-3.95 862.38-4.78 864.06-5.6 865.36-6.93 866.66-8.25 866.96-9.65L866.96-9.65 868.51-16.25Z" opacity="1" transform="matrix(1,0,0,1,0,0)" fill="#000000" class="slogan-text-1" data-fill-palette-color="secondary" id="text-1"></path></svg></g></svg></g></svg></g></svg></g><g transform="matrix(1,0,0,1,151.2100591577415,0)"><svg viewBox="0 0 93.09988168451694 127.74464223963935" height="127.74464223963935" width="93.09988168451694"><g><svg xmlns="http://www.w3.org/2000/svg" xmlns:xlink="http://www.w3.org/1999/xlink" version="1.1" viewBox="16.576 4.884 62.84560241954403 86.232" x="0" y="0" height="127.74464223963935" width="93.09988168451694" class="icon-icon-0" data-fill-palette-color="accent" id="icon-0"><path d="M37.996 91.116C26.184 91.116 16.576 82.86 16.576 72.7 16.576 65.896 21.444 47.028 29.068 37.852A1.99 1.99 0 0 1 31.14 37.204 1.99 1.99 0 0 1 32.584 38.824C33.9 47.308 36.668 54.656 38.752 57.624 40.028 56.5 43.32 51.008 46.004 42.156 46.236 41.404 46.884 40.856 47.66 40.744 48.472 40.648 49.216 41.012 49.62 41.684 55.592 51.44 59.408 66.564 59.408 72.688 59.416 82.852 49.808 91.116 37.996 91.116M29.52 44.168C24.144 53.12 20.576 67.104 20.576 72.696 20.576 80.648 28.392 87.112 37.996 87.112 47.592 87.112 55.412 80.652 55.412 72.696 55.412 67.916 52.66 56.54 48.348 47.708 46.276 53.344 42.516 61.804 38.464 61.804 37.472 61.804 36.552 61.344 35.884 60.492 33.892 57.936 31.248 51.984 29.52 44.168" fill="#000000" data-fill-palette-color="accent"></path><path d="M39.096 50.884C37.996 50.884 37.096 49.988 37.096 48.884 37.096 45.172 38.852 41.012 40.712 36.612 42.744 31.8 44.844 26.832 44.844 22.136 44.844 16.092 43.024 8.884 34.344 8.884A2 2 0 0 1 34.344 4.884C43.56 4.884 48.844 11.172 48.844 22.136 48.844 27.636 46.476 33.228 44.396 38.176 42.696 42.196 41.096 45.992 41.096 48.896A1.996 1.996 0 0 1 39.096 50.884" fill="#000000" data-fill-palette-color="accent"></path><path d="M59.644 37.92C56.604 37.92 53.44 37.24 50.24 35.896A2 2 0 0 1 49.06 33.624C51.276 23.54 58.924 17.536 69.528 17.536 72.22 17.536 75.048 17.928 77.944 18.696A1.987 1.987 0 0 1 79.372 21.056C77.62 29.172 70.684 37.92 59.644 37.92M53.412 32.824C55.552 33.556 57.648 33.912 59.656 33.912 67.632 33.912 72.952 28.088 74.96 22.084A27 27 0 0 0 69.544 21.516C61.42 21.524 55.628 25.616 53.412 32.824" fill="#000000" data-fill-palette-color="accent"></path></svg></g></svg></g><g></g></svg></g><defs></defs></svg><rect width="395.52" height="234.05147923012396" fill="none" stroke="none" visibility="hidden"></rect></g></svg></g></svg>